<svg aria-hidden="true" style="position: absolute; width: 0; height: 0; overflow: hidden;" version="1.1" xmlns="http://www.w3.org/2000/svg" xmlns:xlink="http://www.w3.org/1999/xlink">
<defs>
<symbol id="icon-admin-burger-menu" viewBox="0 0 32 32">
<path d="M5.333 17.333c0.736 0 1.333-0.597 1.333-1.333s-0.597-1.333-1.333-1.333-1.333 0.597-1.333 1.333c0 0.736 0.597 1.333 1.333 1.333z"></path>
<path d="M26.745 14.667h-16.16c-0.692 0-1.253 0.561-1.253 1.253v0.16c0 0.692 0.561 1.253 1.253 1.253h16.16c0.692 0 1.253-0.561 1.253-1.253v-0.16c0-0.692-0.561-1.253-1.253-1.253z"></path>
<path d="M26.747 21.333h-21.493c-0.692 0-1.253 0.561-1.253 1.253v0.16c0 0.692 0.561 1.253 1.253 1.253h21.493c0.692 0 1.253-0.561 1.253-1.253v-0.16c0-0.692-0.561-1.253-1.253-1.253z"></path>
<path d="M26.747 8h-21.493c-0.692 0-1.253 0.561-1.253 1.253v0.16c0 0.692 0.561 1.253 1.253 1.253h21.493c0.692 0 1.253-0.561 1.253-1.253v-0.16c0-0.692-0.561-1.253-1.253-1.253z"></path>
</symbol>
<symbol id="icon-arrow-down" viewBox="0 0 32 32">
<path d="M5.897 10.429c-0.127-0.12-0.277-0.214-0.441-0.277s-0.338-0.092-0.513-0.087c-0.175 0.005-0.347 0.044-0.507 0.116s-0.304 0.174-0.424 0.301c-0.12 0.127-0.214 0.277-0.277 0.441s-0.092 0.338-0.087 0.513c0.005 0.175 0.044 0.347 0.116 0.507s0.174 0.304 0.301 0.424l12 11.333c0.248 0.234 0.575 0.364 0.916 0.364s0.668-0.13 0.916-0.364l12.001-11.333c0.13-0.12 0.235-0.264 0.309-0.424s0.115-0.334 0.122-0.511c0.006-0.177-0.023-0.353-0.085-0.518s-0.157-0.316-0.278-0.445c-0.121-0.128-0.267-0.231-0.428-0.303s-0.335-0.111-0.512-0.114c-0.177-0.004-0.352 0.027-0.517 0.092s-0.314 0.161-0.441 0.284l-11.087 10.469-11.084-10.469z"></path>
</symbol>
<symbol id="icon-arrow-left" viewBox="0 0 32 32">
<path d="M21.568 5.902c0.12-0.127 0.214-0.277 0.277-0.441s0.092-0.338 0.087-0.513c-0.005-0.175-0.044-0.347-0.116-0.507s-0.174-0.304-0.301-0.424c-0.127-0.12-0.277-0.214-0.441-0.277s-0.338-0.092-0.513-0.087c-0.175 0.005-0.347 0.044-0.507 0.116s-0.304 0.174-0.424 0.301l-11.333 12c-0.234 0.248-0.364 0.575-0.364 0.916s0.13 0.668 0.364 0.916l11.333 12.001c0.119 0.13 0.264 0.235 0.424 0.309s0.334 0.115 0.511 0.122c0.177 0.006 0.353-0.023 0.518-0.085s0.317-0.157 0.445-0.278c0.128-0.121 0.231-0.267 0.303-0.428s0.111-0.335 0.114-0.512c0.004-0.177-0.027-0.352-0.092-0.517s-0.161-0.314-0.284-0.441l-10.469-11.087 10.469-11.084z"></path>
</symbol>
<symbol id="icon-arrow-right" viewBox="0 0 32 32">
<path d="M10.364 28.15c-0.12 0.127-0.214 0.277-0.277 0.441s-0.092 0.338-0.087 0.513c0.005 0.175 0.044 0.347 0.116 0.507s0.174 0.304 0.301 0.424c0.127 0.12 0.277 0.214 0.441 0.277s0.338 0.092 0.513 0.087 0.347-0.044 0.507-0.116c0.16-0.072 0.304-0.174 0.424-0.301l11.333-12c0.234-0.248 0.364-0.575 0.364-0.916s-0.13-0.668-0.364-0.916l-11.333-12.001c-0.119-0.13-0.264-0.235-0.424-0.309s-0.334-0.115-0.511-0.121c-0.177-0.006-0.353 0.023-0.518 0.085s-0.317 0.157-0.445 0.278c-0.128 0.121-0.231 0.267-0.303 0.428s-0.111 0.335-0.114 0.512c-0.004 0.177 0.027 0.352 0.092 0.517s0.161 0.314 0.284 0.441l10.469 11.087-10.469 11.084z"></path>
</symbol>
<symbol id="icon-icon-account" viewBox="0 0 32 32">
<path d="M5.335 8h-2.667v18.667c0 1.467 1.2 2.667 2.667 2.667h18.667v-2.667h-18.667v-18.667zM26.669 2.667h-16c-1.467 0-2.667 1.2-2.667 2.667v16c0 1.467 1.2 2.667 2.667 2.667h16c1.467 0 2.667-1.2 2.667-2.667v-16c0-1.467-1.2-2.667-2.667-2.667zM18.669 5.333c2.213 0 4 1.787 4 4s-1.787 4-4 4c-2.213 0-4-1.787-4-4s1.787-4 4-4zM26.669 21.333h-16v-2c0-2.653 5.333-4 8-4s8 1.347 8 4v2z"></path>
</symbol>
<symbol id="icon-icon-achievement" viewBox="0 0 32 32">
<path d="M19.121 18.676l1.419 0.149v11.55l-3.92-4.185v-6.659l1.138 0.556 1.362-1.411zM12.874 18.676l-1.42 0.149v11.55l3.919-4.185v-6.659l-1.138 0.556-1.361-1.411zM23.623 11.44l0.459 1.598-1.378 0.929-0.116 1.661-1.613 0.402-0.675 1.52-1.654-0.175-1.155 1.193-1.494-0.73-1.494 0.73-1.155-1.197-1.654 0.175-0.675-1.52-1.613-0.398-0.115-1.658-1.382-0.932 0.459-1.598-0.975-1.347 0.978-1.345-0.462-1.595 1.379-0.929 0.115-1.658 1.616-0.398 0.675-1.52 1.654 0.175 1.155-1.197 1.494 0.73 1.494-0.73 1.155 1.197 1.654-0.175 0.675 1.52 1.613 0.402 0.116 1.658 1.378 0.929-0.459 1.598 0.979 1.338-0.979 1.347zM20.547 10.092c0-0.893-0.265-1.766-0.761-2.508s-1.201-1.321-2.026-1.663c-0.825-0.342-1.733-0.431-2.609-0.257s-1.68 0.604-2.312 1.236c-0.631 0.631-1.061 1.436-1.236 2.312s-0.085 1.784 0.257 2.609c0.342 0.825 0.92 1.53 1.663 2.026s1.615 0.761 2.508 0.761c1.197-0.002 2.344-0.478 3.191-1.325s1.323-1.994 1.324-3.191zM16.032 6.825c-0.646 0-1.278 0.192-1.815 0.551s-0.956 0.869-1.204 1.466c-0.247 0.597-0.312 1.254-0.186 1.888s0.437 1.216 0.894 1.673c0.457 0.457 1.039 0.768 1.673 0.894s1.291 0.061 1.888-0.186c0.597-0.247 1.108-0.666 1.467-1.203s0.551-1.169 0.551-1.815c-0.003-0.866-0.348-1.695-0.96-2.307s-1.442-0.956-2.308-0.958v-0.002z"></path>
</symbol>
<symbol id="icon-icon-close" viewBox="0 0 32 32">
<path d="M15.997 18.828l7.071 7.072c0.375 0.375 0.884 0.586 1.415 0.586s1.040-0.211 1.415-0.586c0.375-0.375 0.586-0.884 0.586-1.415s-0.211-1.039-0.586-1.415l-7.073-7.071 7.072-7.071c0.186-0.186 0.333-0.406 0.433-0.649s0.152-0.503 0.152-0.765c-0-0.263-0.052-0.523-0.152-0.765s-0.248-0.463-0.434-0.649c-0.186-0.186-0.406-0.333-0.649-0.433s-0.503-0.152-0.765-0.152c-0.263 0-0.523 0.052-0.765 0.152s-0.463 0.248-0.649 0.434l-7.069 7.071-7.071-7.071c-0.184-0.191-0.405-0.344-0.649-0.449s-0.506-0.16-0.772-0.163c-0.266-0.002-0.529 0.048-0.775 0.149s-0.469 0.249-0.657 0.437c-0.188 0.188-0.336 0.411-0.437 0.657s-0.151 0.509-0.149 0.775c0.002 0.266 0.057 0.528 0.162 0.772s0.257 0.465 0.448 0.649l7.073 7.072-7.072 7.071c-0.375 0.375-0.586 0.884-0.586 1.415s0.211 1.040 0.586 1.415 0.884 0.586 1.415 0.586c0.531 0 1.039-0.211 1.415-0.586l7.069-7.072z"></path>
</symbol>
<symbol id="icon-icon-contact-phone" viewBox="0 0 32 32">
<path d="M2.667 28c-0.733 0-1.361-0.261-1.884-0.784s-0.784-1.15-0.783-1.883v-18.667c0-0.733 0.261-1.361 0.784-1.884s1.15-0.784 1.883-0.783h26.667c0.733 0 1.361 0.261 1.884 0.784s0.784 1.15 0.783 1.883v18.667c0 0.733-0.261 1.361-0.784 1.884s-1.15 0.784-1.883 0.783h-26.667zM21.2 25.333h8.133v-18.667h-26.667v18.667h0.133c0.933-1.667 2.222-2.972 3.867-3.917s3.422-1.417 5.333-1.416c1.911 0 3.689 0.472 5.333 1.417s2.933 2.25 3.867 3.916zM12 18.667c1.111 0 2.056-0.389 2.833-1.167s1.167-1.722 1.167-2.833c0-1.111-0.389-2.056-1.167-2.833s-1.722-1.167-2.833-1.167c-1.111 0-2.056 0.389-2.833 1.167s-1.167 1.722-1.167 2.833c0 1.111 0.389 2.056 1.167 2.833s1.722 1.167 2.833 1.167zM25.333 24l2.667-2.667-2-2.667h-2.2c-0.133-0.4-0.244-0.828-0.333-1.284s-0.133-0.917-0.133-1.383c0-0.467 0.044-0.916 0.133-1.349s0.2-0.872 0.333-1.317h2.2l2-2.667-2.667-2.667c-1.2 0.933-2.167 2.117-2.9 3.551s-1.1 2.917-1.1 4.449c0 1.533 0.367 3.017 1.1 4.451s1.7 2.617 2.9 3.549zM6.067 25.333h11.867c-0.756-0.844-1.65-1.5-2.684-1.967s-2.117-0.7-3.249-0.7c-1.133 0-2.211 0.233-3.233 0.7s-1.922 1.122-2.7 1.967zM12 16c-0.378 0-0.695-0.128-0.951-0.384s-0.384-0.572-0.383-0.949c0-0.378 0.128-0.695 0.384-0.951s0.572-0.384 0.949-0.383c0.378 0 0.695 0.128 0.951 0.384s0.384 0.572 0.383 0.949c0 0.378-0.128 0.695-0.384 0.951s-0.572 0.384-0.949 0.383z"></path>
</symbol>
<symbol id="icon-icon-department" viewBox="0 0 32 32">
<path d="M20.266 7.468c0 0.883-0.273 1.744-0.783 2.464s-1.23 1.266-2.062 1.56v3.086h4.266c1.131 0 2.216 0.45 3.017 1.25s1.249 1.885 1.249 3.017v1.664c0.949 0.336 1.749 0.996 2.259 1.864s0.696 1.889 0.525 2.881c-0.17 0.992-0.686 1.892-1.455 2.541s-1.744 1.005-2.751 1.005c-1.007 0-1.981-0.356-2.751-1.005s-1.285-1.549-1.455-2.541c-0.17-0.992 0.016-2.013 0.525-2.881s1.31-1.529 2.259-1.864v-1.664c0-0.377-0.15-0.739-0.416-1.006s-0.628-0.416-1.005-0.416h-11.377c-0.377 0-0.739 0.15-1.006 0.416s-0.416 0.628-0.416 1.006v1.664c0.949 0.336 1.749 0.996 2.259 1.864s0.696 1.889 0.525 2.881c-0.17 0.992-0.686 1.892-1.455 2.541s-1.744 1.005-2.751 1.005c-1.007 0-1.981-0.356-2.751-1.005s-1.285-1.549-1.455-2.541c-0.17-0.992 0.016-2.013 0.525-2.881s1.31-1.529 2.259-1.864v-1.664c0-1.132 0.449-2.217 1.25-3.017s1.885-1.25 3.017-1.25h4.266v-3.086c-0.738-0.26-1.39-0.719-1.885-1.325s-0.814-1.337-0.921-2.112c-0.108-0.775-0-1.565 0.31-2.283s0.813-1.337 1.452-1.789c0.639-0.452 1.389-0.72 2.17-0.774s1.561 0.108 2.256 0.467c0.695 0.36 1.278 0.903 1.684 1.572s0.622 1.436 0.622 2.218zM16 6.045c-0.377 0-0.739 0.15-1.006 0.417s-0.416 0.628-0.416 1.006c0 0.377 0.15 0.739 0.416 1.006s0.628 0.417 1.006 0.417c0.377 0 0.739-0.15 1.006-0.417s0.416-0.628 0.416-1.006-0.15-0.739-0.416-1.006c-0.267-0.267-0.628-0.417-1.006-0.417zM7.468 23.111c-0.377 0-0.739 0.15-1.006 0.416s-0.417 0.628-0.417 1.006c0 0.377 0.15 0.739 0.417 1.006s0.628 0.416 1.006 0.416c0.377 0 0.739-0.15 1.006-0.416s0.416-0.628 0.416-1.006c0-0.377-0.15-0.739-0.416-1.006s-0.628-0.416-1.006-0.416zM24.532 23.111c-0.377 0-0.739 0.15-1.005 0.416s-0.417 0.628-0.417 1.006 0.15 0.739 0.417 1.006c0.267 0.267 0.628 0.416 1.005 0.416s0.739-0.15 1.006-0.416 0.416-0.628 0.416-1.006c0-0.377-0.15-0.739-0.416-1.006s-0.628-0.416-1.006-0.416z"></path>
</symbol>
<symbol id="icon-icon-edit" viewBox="0 0 32 32">
<path d="M25.319 2.683l4 4-3.049 3.051-4-4 3.049-3.051zM10.669 21.333h4l9.716-9.716-4-4-9.716 9.716v4z"></path>
<path d="M25.333 25.333h-14.456c-0.035 0-0.071 0.013-0.105 0.013-0.044 0-0.088-0.012-0.133-0.013h-3.972v-18.667h9.129l2.667-2.667h-11.796c-1.471 0-2.667 1.195-2.667 2.667v18.667c0 1.472 1.196 2.667 2.667 2.667h18.667c0.707 0 1.386-0.281 1.886-0.781s0.781-1.178 0.781-1.886v-11.557l-2.667 2.667v8.891z"></path>
</symbol>
<symbol id="icon-icon-exit" viewBox="0 0 32 32">
<path d="M13.453 20.787l1.88 1.88 6.667-6.667-6.667-6.667-1.88 1.88 3.44 3.453h-12.893v2.667h12.893l-3.44 3.453zM25.333 4h-18.667c-0.707 0-1.386 0.281-1.886 0.781s-0.781 1.178-0.781 1.886v5.333h2.667v-5.333h18.667v18.667h-18.667v-5.333h-2.667v5.333c0 0.707 0.281 1.386 0.781 1.886s1.178 0.781 1.886 0.781h18.667c1.467 0 2.667-1.2 2.667-2.667v-18.667c0-1.467-1.2-2.667-2.667-2.667z"></path>
</symbol>
<symbol id="icon-icon-gallery" viewBox="0 0 32 32">
<path stroke-linejoin="miter" stroke-linecap="butt" stroke-miterlimit="4" stroke-width="2.56" d="M21.335 13.333c1.473 0 2.667-1.194 2.667-2.667s-1.194-2.667-2.667-2.667c-1.473 0-2.667 1.194-2.667 2.667s1.194 2.667 2.667 2.667z"></path>
<path stroke-linejoin="miter" stroke-linecap="round" stroke-miterlimit="4" stroke-width="2.56" d="M2.669 16.667l2.336-2.044c0.586-0.512 1.344-0.782 2.121-0.756s1.516 0.346 2.066 0.896l5.72 5.72c0.444 0.444 1.030 0.717 1.655 0.771s1.25-0.114 1.763-0.475l0.399-0.28c0.741-0.52 1.636-0.774 2.54-0.719s1.762 0.414 2.435 1.019l4.299 3.868"></path>
<path stroke-linejoin="miter" stroke-linecap="round" stroke-miterlimit="4" stroke-width="2.56" d="M29.335 16c0 6.285 0 9.428-1.953 11.38-1.951 1.953-5.095 1.953-11.38 1.953s-9.428 0-11.381-1.953c-1.952-1.951-1.952-5.095-1.952-11.38s0-9.428 1.952-11.381c1.955-1.952 5.096-1.952 11.381-1.952s9.428 0 11.38 1.952c1.299 1.299 1.733 3.124 1.88 6.048"></path>
</symbol>
<symbol id="icon-icon-news" viewBox="0 0 32 32">
<path d="M21.333 4c0.673-0 1.321 0.254 1.814 0.711s0.796 1.084 0.846 1.755l0.007 0.2v6.667h2c0.497 0 0.976 0.185 1.344 0.52s0.598 0.794 0.646 1.289l0.009 0.192v10c0 1.020-0.39 2.002-1.090 2.744s-1.657 1.189-2.676 1.249l-0.235 0.007h-17.333c-0.673 0-1.321-0.254-1.814-0.711s-0.795-1.084-0.846-1.755l-0.007-0.2v-20c-0-0.673 0.254-1.321 0.711-1.814s1.084-0.795 1.755-0.846l0.2-0.007h14.667zM25.333 16h-1.333v10.667c0.354 0 0.693-0.14 0.943-0.391s0.39-0.589 0.39-0.943v-9.333zM21.333 6.667h-14.667v20h14.667v-20zM14.667 17.333c0.34 0 0.667 0.131 0.914 0.364s0.396 0.552 0.416 0.891c0.020 0.339-0.090 0.673-0.309 0.934s-0.528 0.428-0.865 0.468l-0.156 0.009h-4c-0.34-0-0.667-0.131-0.914-0.364s-0.396-0.552-0.416-0.891c-0.020-0.339 0.090-0.673 0.309-0.934s0.528-0.428 0.865-0.468l0.156-0.009h4zM17.333 10.667c0.354 0 0.693 0.14 0.943 0.39s0.391 0.589 0.391 0.943c0 0.354-0.14 0.693-0.391 0.943s-0.589 0.39-0.943 0.39h-6.667c-0.354 0-0.693-0.14-0.943-0.39s-0.391-0.589-0.391-0.943c0-0.354 0.14-0.693 0.391-0.943s0.589-0.39 0.943-0.39h6.667z"></path>
</symbol>
<symbol id="icon-icon-password" viewBox="0 0 32 32">
<path d="M20.29 3.201c-1.744 0-3.369 0.687-4.708 1.987-1.521 1.478-2.217 3.296-2.014 5.238 0.153 1.442 0.83 2.896 1.916 4.196l-7.534 7.32-1.364-1.326c-0.665-0.649-1.217-0.111-1.883 0.537l-0.649 0.662c-0.667 0.645-1.218 1.151-0.552 1.798l1.362 1.327-1.070 1.040c-0.159 0.153-0.284 0.335-0.37 0.535s-0.13 0.415-0.13 0.632 0.044 0.432 0.13 0.632c0.086 0.2 0.212 0.382 0.37 0.535 0.665 0.645 1.736 0.645 2.404 0l11.82-11.485c1.28 0.779 2.671 1.198 4.026 1.198 1.743 0 3.371-0.687 4.709-1.988 1.522-1.477 2.217-3.294 2.013-5.237-0.183-1.748-1.138-3.507-2.662-4.986-1.727-1.68-3.79-2.618-5.813-2.618zM20.355 5.283c1.448 0 2.951 0.72 4.253 1.988 1.158 1.121 1.88 2.425 2.014 3.691 0.138 1.317-0.339 2.571-1.396 3.597-0.948 0.919-2.052 1.387-3.247 1.387-1.448 0-2.949-0.721-4.254-1.987-1.156-1.124-1.879-2.425-2.013-3.691-0.137-1.317 0.338-2.57 1.397-3.597 0.948-0.919 2.053-1.388 3.247-1.388z"></path>
</symbol>
<symbol id="icon-icon-plus" viewBox="0 0 32 32">
<path d="M24.002 17.331h-6.667v6.667c0 0.354-0.14 0.693-0.39 0.943s-0.589 0.391-0.943 0.391-0.693-0.14-0.943-0.391c-0.25-0.25-0.391-0.589-0.391-0.943v-6.667h-6.667c-0.354 0-0.693-0.14-0.943-0.391s-0.391-0.589-0.391-0.943c0-0.354 0.14-0.693 0.391-0.943s0.589-0.391 0.943-0.391h6.667v-6.667c0-0.354 0.14-0.693 0.391-0.943s0.589-0.391 0.943-0.391c0.354 0 0.693 0.14 0.943 0.391s0.39 0.589 0.39 0.943v6.667h6.667c0.354 0 0.693 0.14 0.943 0.391s0.39 0.589 0.39 0.943c0 0.354-0.14 0.693-0.39 0.943s-0.589 0.391-0.943 0.391z"></path>
</symbol>
<symbol id="icon-icon-poster" viewBox="0 0 32 32">
<path d="M28.744 1.468c-8.306 1.251-16.887 1.791-25.894 1.199 0.596 9.277 1.138 18.571 1.022 27.971 8.103-0.556 16.203-1.125 24.572-0.256-0.356-9.656-0.869-19.312 0.3-28.914zM15.694 5.087c2.9 0.014 5.813 1.238 7.919 3.607 3.85 4.319 3.606 11.156-0.6 14.9-0.2 0.181-0.406 0.344-0.612 0.506-0.912 1.625-0.888 3.569-2.437 3.856-0.806 0.15-1.625-0.637-2.325-1.419-0.3 0.537-0.606 0.912-0.988 0.9-0.356-0.012-0.569-0.631-0.712-1.344-2.781-0.112-5.537-1.331-7.55-3.594-3.851-4.319-3.611-11.156 0.6-14.906 1.906-1.697 4.3-2.519 6.706-2.507zM15.963 7.356c-0.425 0.006-0.85 0.044-1.275 0.119-0.113 0.6-0.269 1.156-0.563 1.169-0.306 0.012-0.544-0.325-0.781-0.781-0.85 0.325-1.656 0.819-2.394 1.475-3.269 2.912-3.956 7.962-0.881 11.412 3.069 3.45 8.175 3.825 11.444 0.912 3.269-2.906 3.494-8.025 0.419-11.475-1.681-1.887-3.825-2.831-5.969-2.831zM16.494 10.119c1.119 0.012 2.206 0.381 3.081 1.15 2.144 1.894 2.112 5.512 0.188 7.688-1.925 2.181-5.256 2.475-7.4 0.575-2.144-1.894-2.262-5.238-0.331-7.413 1.144-1.294 2.831-2.019 4.463-2zM15.844 12.475c-0.881-0.006-1.762 0.325-2.375 1.012-1.156 1.306-0.806 3.3 0.387 4.356s3.344 0.925 4.5-0.381c1.15-1.3 0.775-3.175-0.419-4.231-0.562-0.5-1.325-0.756-2.094-0.756zM15.681 14.575c0.173 0 0.343 0.031 0.503 0.092s0.304 0.149 0.426 0.26 0.218 0.244 0.284 0.389c0.066 0.146 0.1 0.301 0.1 0.459s-0.034 0.313-0.1 0.459c-0.066 0.146-0.162 0.278-0.284 0.389s-0.267 0.2-0.426 0.26c-0.159 0.060-0.33 0.092-0.503 0.092s-0.343-0.031-0.503-0.092c-0.159-0.060-0.304-0.149-0.426-0.26s-0.219-0.244-0.284-0.389c-0.066-0.145-0.1-0.301-0.1-0.459s0.034-0.313 0.1-0.459 0.162-0.278 0.284-0.389c0.122-0.111 0.267-0.2 0.426-0.26s0.33-0.092 0.503-0.092z"></path>
</symbol>
<symbol id="icon-icon-slider" viewBox="0 0 32 32">
<path stroke-linejoin="miter" stroke-linecap="round" stroke-miterlimit="4" stroke-width="3" d="M24 10.667c0-3.771 0-5.657-1.172-6.828-1.171-1.172-3.057-1.172-6.828-1.172s-5.657 0-6.828 1.172c-1.172 1.171-1.172 3.057-1.172 6.828v10.667c0 3.771 0 5.657 1.172 6.828 1.171 1.172 3.057 1.172 6.828 1.172s5.657 0 6.828-1.172c1.172-1.171 1.172-3.057 1.172-6.828v-5.333M28 6v20M4 6v20"></path>
</symbol>
<symbol id="icon-icon-teacher" viewBox="0 0 32 32">
<path d="M10.4 21.3c-0.12 0-0.239 0.016-0.353 0.051-0.648 0.197-1.329 0.324-2.047 0.324s-1.399-0.127-2.047-0.324c-0.114-0.035-0.233-0.051-0.353-0.051-3.103 0-5.616 2.366-5.6 5.279 0.007 1.231 1.087 2.221 2.4 2.221h11.2c1.313 0 2.393-0.99 2.4-2.221 0.016-2.913-2.497-5.279-5.6-5.279zM8 19.8c2.651 0 4.8-2.015 4.8-4.5s-2.149-4.5-4.8-4.5-4.8 2.015-4.8 4.5c0 2.485 2.149 4.5 4.8 4.5zM29.6 4.8h-19.2c-1.323 0-2.4 1.043-2.4 2.325v2.175c1.171 0 2.255 0.318 3.2 0.834v-2.334h17.6v13.5h-3.2v-3h-6.4v3h-3.812c0.955 0.782 1.656 1.816 1.984 3h12.228c1.324 0 2.4-1.043 2.4-2.324v-14.851c0-1.282-1.076-2.325-2.4-2.325z"></path>
</symbol>
<symbol id="icon-icon-trash" viewBox="0 0 32 32">
<path stroke-linejoin="round" stroke-linecap="round" stroke-miterlimit="4" stroke-width="2.4" d="M4 8h24"></path>
<path stroke-linejoin="round" stroke-linecap="round" stroke-miterlimit="4" stroke-width="2.4" d="M25.335 8.001v18.667c0 0.707-0.281 1.385-0.781 1.886s-1.178 0.781-1.886 0.781h-13.333c-0.707 0-1.386-0.281-1.886-0.781s-0.781-1.178-0.781-1.886v-18.667M10.669 8.001v-2.667c0-0.707 0.281-1.386 0.781-1.886s1.178-0.781 1.886-0.781h5.333c0.707 0 1.385 0.281 1.886 0.781s0.781 1.178 0.781 1.886v2.667"></path>
<path stroke-linejoin="round" stroke-linecap="round" stroke-miterlimit="4" stroke-width="2.4" d="M13.331 14.667v8"></path>
<path stroke-linejoin="round" stroke-linecap="round" stroke-miterlimit="4" stroke-width="2.4" d="M18.669 14.667v8"></path>
</symbol>
</defs>
</svg>
